<svg width="15" height="19" viewBox="0 0 15 19" fill="none" xmlns="http://www.w3.org/2000/svg">
<path d="M7.5 0C3.59317 0 0.414795 3.17965 0.414795 7.08802C0.414795 12.9112 6.79476 18.5971 7.06646 18.8364C7.19031 18.9454 7.34512 19.0001 7.5 19.0001C7.65488 19.0001 7.8097 18.9455 7.93361 18.8364C8.20518 18.5972 14.5852 12.9113 14.5852 7.08802C14.5852 3.17965 11.4068 0 7.5 0ZM7.5 17.4447C6.08946 16.0779 1.72688 11.4934 1.72688 7.08802C1.72688 3.90319 4.3167 1.31209 7.5 1.31209C10.6833 1.31209 13.2731 3.90319 13.2731 7.08802C13.2731 11.4933 8.91055 16.0778 7.5 17.4447Z" fill="black"/>
<path d="M7.5 3.78613C5.69129 3.78613 4.21985 5.26737 4.21985 7.08804C4.21985 8.90878 5.69129 10.3899 7.5 10.3899C9.30871 10.3899 10.7802 8.90878 10.7802 7.08804C10.7802 5.26737 9.30871 3.78613 7.5 3.78613ZM7.5 9.07786C6.41476 9.07786 5.53187 8.18524 5.53187 7.08804C5.53187 5.9909 6.41476 5.09822 7.5 5.09822C8.58524 5.09822 9.46814 5.99084 9.46814 7.08804C9.46814 8.18524 8.58524 9.07786 7.5 9.07786Z" fill="black"/>
</svg>
